<mxfile host="app.diagrams.net" agent="Mozilla/5.0 (Windows NT 10.0; Win64; x64) AppleWebKit/537.36 (KHTML, like Gecko) Chrome/130.0.0.0 Safari/537.36" version="24.8.3">
  <diagram name="Page-1" id="ADdnZNFPhiC1YL75WqlX">
    <mxGraphModel dx="1050" dy="1657" grid="1" gridSize="10" guides="1" tooltips="1" connect="1" arrows="1" fold="1" page="1" pageScale="1" pageWidth="850" pageHeight="1100" math="0" shadow="0">
      <root>
        <mxCell id="0" />
        <mxCell id="1" parent="0" />
        <mxCell id="T0vaFJOLHhgulWwXpN9i-1" value="" style="rounded=0;whiteSpace=wrap;html=1;" parent="1" vertex="1">
          <mxGeometry x="220" y="-40" width="510" height="460" as="geometry" />
        </mxCell>
        <mxCell id="T0vaFJOLHhgulWwXpN9i-2" value="" style="rounded=0;whiteSpace=wrap;html=1;" parent="1" vertex="1">
          <mxGeometry x="220" y="440" width="510" height="280" as="geometry" />
        </mxCell>
        <mxCell id="UUXd9PpIRvEqFofyWrx6-1" style="edgeStyle=orthogonalEdgeStyle;rounded=0;orthogonalLoop=1;jettySize=auto;html=1;curved=0;" parent="1" edge="1">
          <mxGeometry relative="1" as="geometry">
            <Array as="points">
              <mxPoint x="600" y="160" />
              <mxPoint x="600" y="160" />
            </Array>
            <mxPoint x="419.07142857142867" y="160" as="sourcePoint" />
            <mxPoint x="660.5" y="160" as="targetPoint" />
          </mxGeometry>
        </mxCell>
        <mxCell id="UUXd9PpIRvEqFofyWrx6-2" value="Frontend" style="shape=umlLifeline;perimeter=lifelinePerimeter;whiteSpace=wrap;html=1;container=1;dropTarget=0;collapsible=0;recursiveResize=0;outlineConnect=0;portConstraint=eastwest;newEdgeStyle={&quot;curved&quot;:0,&quot;rounded&quot;:0};" parent="1" vertex="1">
          <mxGeometry x="370" y="40" width="100" height="640" as="geometry" />
        </mxCell>
        <mxCell id="UUXd9PpIRvEqFofyWrx6-4" value="Backend" style="shape=umlLifeline;perimeter=lifelinePerimeter;whiteSpace=wrap;html=1;container=1;dropTarget=0;collapsible=0;recursiveResize=0;outlineConnect=0;portConstraint=eastwest;newEdgeStyle={&quot;curved&quot;:0,&quot;rounded&quot;:0};" parent="1" vertex="1">
          <mxGeometry x="611" y="40" width="100" height="640" as="geometry" />
        </mxCell>
        <mxCell id="UUXd9PpIRvEqFofyWrx6-9" value="Access Token" style="html=1;whiteSpace=wrap;" parent="1" vertex="1">
          <mxGeometry x="490" y="120" width="110" height="30" as="geometry" />
        </mxCell>
        <mxCell id="UUXd9PpIRvEqFofyWrx6-18" style="edgeStyle=orthogonalEdgeStyle;rounded=0;orthogonalLoop=1;jettySize=auto;html=1;curved=0;" parent="1" edge="1">
          <mxGeometry relative="1" as="geometry">
            <mxPoint x="661.5" y="210" as="sourcePoint" />
            <mxPoint x="661.5" y="230" as="targetPoint" />
            <Array as="points">
              <mxPoint x="622" y="200" />
            </Array>
          </mxGeometry>
        </mxCell>
        <mxCell id="UUXd9PpIRvEqFofyWrx6-19" value="Verify token with Private Key" style="html=1;whiteSpace=wrap;" parent="1" vertex="1">
          <mxGeometry x="501" y="190" width="110" height="50" as="geometry" />
        </mxCell>
        <mxCell id="NcqOxkm6iDfhiTjoXCpv-1" value="" style="image;aspect=fixed;html=1;points=[];align=center;fontSize=12;image=img/lib/azure2/general/Browser.svg;" parent="1" vertex="1">
          <mxGeometry x="380" y="-20" width="65" height="52" as="geometry" />
        </mxCell>
        <mxCell id="NcqOxkm6iDfhiTjoXCpv-2" value="" style="image;aspect=fixed;perimeter=ellipsePerimeter;html=1;align=center;shadow=0;dashed=0;fontColor=#4277BB;labelBackgroundColor=default;fontSize=12;spacingTop=3;image=img/lib/ibm/infrastructure/mobile_backend.svg;" parent="1" vertex="1">
          <mxGeometry x="631" y="-20" width="56" height="56" as="geometry" />
        </mxCell>
        <mxCell id="CnX-ueHoZXUlPhO20CK_-5" value="If token is valid send response as verify, if not send error message" style="html=1;whiteSpace=wrap;" parent="1" vertex="1">
          <mxGeometry x="501" y="255" width="110" height="60" as="geometry" />
        </mxCell>
        <mxCell id="DWb7RgPVqDpQ3SzpeeXW-2" style="edgeStyle=orthogonalEdgeStyle;rounded=0;orthogonalLoop=1;jettySize=auto;html=1;" parent="1" source="DWb7RgPVqDpQ3SzpeeXW-1" target="UUXd9PpIRvEqFofyWrx6-2" edge="1">
          <mxGeometry relative="1" as="geometry">
            <Array as="points">
              <mxPoint x="325" y="120" />
            </Array>
          </mxGeometry>
        </mxCell>
        <mxCell id="DWb7RgPVqDpQ3SzpeeXW-1" value="Actor" style="shape=umlActor;verticalLabelPosition=bottom;verticalAlign=top;html=1;outlineConnect=0;" parent="1" vertex="1">
          <mxGeometry x="300" y="100" width="30" height="60" as="geometry" />
        </mxCell>
        <mxCell id="DWb7RgPVqDpQ3SzpeeXW-4" value="" style="endArrow=classic;html=1;rounded=0;" parent="1" edge="1">
          <mxGeometry width="50" height="50" relative="1" as="geometry">
            <mxPoint x="660" y="320" as="sourcePoint" />
            <mxPoint x="420" y="320" as="targetPoint" />
          </mxGeometry>
        </mxCell>
        <mxCell id="DWb7RgPVqDpQ3SzpeeXW-7" style="edgeStyle=orthogonalEdgeStyle;rounded=0;orthogonalLoop=1;jettySize=auto;html=1;curved=0;" parent="1" edge="1">
          <mxGeometry relative="1" as="geometry">
            <mxPoint x="419.5" y="360" as="sourcePoint" />
            <mxPoint x="419.5" y="380" as="targetPoint" />
            <Array as="points">
              <mxPoint x="380" y="350" />
            </Array>
          </mxGeometry>
        </mxCell>
        <mxCell id="DWb7RgPVqDpQ3SzpeeXW-8" value="If received error message, load refresh token from local storage" style="html=1;whiteSpace=wrap;" parent="1" vertex="1">
          <mxGeometry x="260" y="330" width="110" height="60" as="geometry" />
        </mxCell>
        <mxCell id="DWb7RgPVqDpQ3SzpeeXW-9" style="edgeStyle=orthogonalEdgeStyle;rounded=0;orthogonalLoop=1;jettySize=auto;html=1;curved=0;exitX=0.5;exitY=0.734;exitDx=0;exitDy=0;exitPerimeter=0;" parent="1" edge="1" source="UUXd9PpIRvEqFofyWrx6-2">
          <mxGeometry relative="1" as="geometry">
            <Array as="points" />
            <mxPoint x="429.29" y="510" as="sourcePoint" />
            <mxPoint x="660.7199999999999" y="510" as="targetPoint" />
          </mxGeometry>
        </mxCell>
        <mxCell id="DWb7RgPVqDpQ3SzpeeXW-10" value="Refresh Token" style="html=1;whiteSpace=wrap;" parent="1" vertex="1">
          <mxGeometry x="501" y="450" width="110" height="50" as="geometry" />
        </mxCell>
        <mxCell id="DWb7RgPVqDpQ3SzpeeXW-11" style="edgeStyle=orthogonalEdgeStyle;rounded=0;orthogonalLoop=1;jettySize=auto;html=1;curved=0;" parent="1" edge="1">
          <mxGeometry relative="1" as="geometry">
            <mxPoint x="659.5" y="560" as="sourcePoint" />
            <mxPoint x="659.5" y="580" as="targetPoint" />
            <Array as="points">
              <mxPoint x="620" y="550" />
            </Array>
          </mxGeometry>
        </mxCell>
        <mxCell id="DWb7RgPVqDpQ3SzpeeXW-12" value="Generate new Access token" style="html=1;whiteSpace=wrap;" parent="1" vertex="1">
          <mxGeometry x="501" y="540" width="110" height="50" as="geometry" />
        </mxCell>
        <mxCell id="DWb7RgPVqDpQ3SzpeeXW-13" value="" style="endArrow=classic;html=1;rounded=0;" parent="1" edge="1">
          <mxGeometry width="50" height="50" relative="1" as="geometry">
            <mxPoint x="660" y="620" as="sourcePoint" />
            <mxPoint x="420" y="620" as="targetPoint" />
          </mxGeometry>
        </mxCell>
        <mxCell id="DWb7RgPVqDpQ3SzpeeXW-14" value="Access Token" style="html=1;whiteSpace=wrap;" parent="1" vertex="1">
          <mxGeometry x="501" y="630" width="110" height="30" as="geometry" />
        </mxCell>
        <mxCell id="iLkNTzqR-2eRxomeUgUj-1" value="Endpoint 1" style="text;html=1;align=center;verticalAlign=middle;whiteSpace=wrap;rounded=0;" vertex="1" parent="1">
          <mxGeometry x="230" y="-30" width="60" height="30" as="geometry" />
        </mxCell>
        <mxCell id="iLkNTzqR-2eRxomeUgUj-2" value="Endpoint 2" style="text;html=1;align=center;verticalAlign=middle;whiteSpace=wrap;rounded=0;" vertex="1" parent="1">
          <mxGeometry x="230" y="450" width="60" height="30" as="geometry" />
        </mxCell>
      </root>
    </mxGraphModel>
  </diagram>
</mxfile>
